<svg height="512" viewBox="0 0 512 512" width="512" xmlns="http://www.w3.org/2000/svg"><g fill="#e535ab"><path d="m73.558 387.405-18.4-10.624 204.992-355.046 18.4 10.624z"/><path d="m50.944 348.416h409.984v21.248h-409.984z"/><path d="m264.125 478.753-205.068-118.4 10.623-18.401 205.069 118.4z"/><path d="m442.268 170.172-205.068-118.4 10.624-18.401 205.068 118.4z"/><path d="m69.737 170.091-10.624-18.401 205.069-118.4 10.624 18.401z"/><path d="m438.487 387.409-204.992-355.046 18.401-10.624 204.992 355.046z"/><path d="m67.2 137.6h21.248v236.8h-21.248z"/><path d="m423.552 137.6h21.248v236.8h-21.248z"/><path d="m260.508 469.759-9.28-16.073 178.354-102.976 9.28 16.073z"/><path d="m472.96 381.312c-12.288 21.376-39.68 28.672-61.056 16.384s-28.672-39.68-16.384-61.056 39.68-28.672 61.056-16.384c21.504 12.416 28.8 39.68 16.384 61.056"/><path d="m116.352 175.36c-12.288 21.376-39.68 28.672-61.056 16.384s-28.672-39.68-16.384-61.056 39.68-28.672 61.056-16.384c21.376 12.416 28.672 39.68 16.384 61.056"/><path d="m39.04 381.312c-12.288-21.376-4.992-48.64 16.384-61.056 21.376-12.288 48.64-4.992 61.056 16.384 12.288 21.376 4.992 48.64-16.384 61.056-21.504 12.288-48.768 4.992-61.056-16.384"/><path d="m395.648 175.36c-12.288-21.376-4.992-48.64 16.384-61.056 21.376-12.288 48.64-4.992 61.056 16.384 12.288 21.376 4.992 48.64-16.384 61.056-21.376 12.288-48.768 4.992-61.056-16.384"/><path d="m256 506.624c-24.704 0-44.672-19.968-44.672-44.672s19.968-44.672 44.672-44.672 44.672 19.968 44.672 44.672c0 24.576-19.968 44.672-44.672 44.672"/><path d="m256 94.72c-24.704 0-44.672-19.968-44.672-44.672s19.968-44.672 44.672-44.672 44.672 19.968 44.672 44.672-19.968 44.672-44.672 44.672"/></g></svg>