<svg height="512" viewBox="0 0 575 512" width="575" xmlns="http://www.w3.org/2000/svg"><g fill="#61dafb"><path d="m574.182 256.234c0-37.991-47.566-73.995-120.493-96.322 16.829-74.345 9.349-133.494-23.608-152.431-7.597-4.442-16.479-6.546-26.179-6.546v26.068c5.376 0 9.7 1.052 13.323 3.039 15.895 9.118 22.79 43.836 17.414 88.49-1.285 10.988-3.389 22.56-5.96 34.367-22.907-5.611-47.917-9.936-74.213-12.742-15.777-21.625-32.139-41.264-48.617-58.447 38.099-35.42 73.861-54.824 98.17-54.824v-26.068c-32.139 0-74.212 22.912-116.753 62.656-42.541-39.51-84.614-62.188-116.753-62.188v26.068c24.192 0 60.071 19.287 98.171 54.473-16.362 17.183-32.724 36.705-48.267 58.33-26.413 2.806-51.423 7.131-74.33 12.859-2.688-11.69-4.675-23.029-6.077-33.9-5.493-44.654 1.286-79.372 17.063-88.606 3.506-2.104 8.064-3.04 13.44-3.04v-26.067c-9.817 0-18.699 2.104-26.413 6.546-32.84 18.937-40.203 77.969-23.257 152.08-72.693 22.444-120.025 58.331-120.025 96.205 0 37.991 47.566 73.994 120.493 96.321-16.829 74.346-9.35 133.494 23.607 152.431 7.597 4.442 16.479 6.546 26.296 6.546 32.14 0 74.213-22.911 116.753-62.655 42.541 39.51 84.614 62.188 116.753 62.188 9.817 0 18.7-2.104 26.413-6.546 32.84-18.937 40.203-77.969 23.257-152.081 72.459-22.327 119.792-58.33 119.792-96.204zm-152.165-77.969c-4.324 15.079-9.7 30.626-15.777 46.173-4.792-9.351-9.817-18.703-15.31-28.054-5.376-9.352-11.103-18.47-16.83-27.354 16.596 2.455 32.607 5.494 47.917 9.235zm-53.526 124.493c-9.116 15.781-18.466 30.743-28.166 44.654-17.414 1.52-35.061 2.338-52.825 2.338-17.648 0-35.295-.818-52.592-2.221-9.7-13.911-19.166-28.756-28.282-44.42-8.882-15.313-16.946-30.86-24.309-46.524 7.246-15.664 15.427-31.328 24.192-46.642 9.116-15.78 18.465-30.743 28.166-44.653 17.413-1.52 35.061-2.338 52.825-2.338 17.647 0 35.295.818 52.591 2.221 9.701 13.91 19.167 28.756 28.283 44.42 8.882 15.313 16.946 30.86 24.309 46.524-7.363 15.664-15.427 31.328-24.192 46.641zm37.749-15.196c6.311 15.664 11.687 31.328 16.128 46.524-15.31 3.741-31.438 6.897-48.151 9.352 5.727-9.001 11.454-18.236 16.83-27.705 5.376-9.351 10.401-18.82 15.193-28.171zm-118.506 124.727c-10.869-11.222-21.738-23.73-32.49-37.407 10.518.468 21.27.819 32.139.819 10.986 0 21.855-.234 32.49-.819-10.518 13.677-21.387 26.185-32.139 37.407zm-86.952-68.851c-16.595-2.455-32.606-5.495-47.916-9.235 4.324-15.08 9.7-30.627 15.777-46.174 4.792 9.352 9.817 18.704 15.31 28.055 5.493 9.352 11.103 18.469 16.829 27.354zm86.367-243.259c10.869 11.222 21.738 23.73 32.49 37.407-10.518-.468-21.27-.819-32.139-.819-10.986 0-21.855.234-32.49.819 10.518-13.677 21.387-26.185 32.139-37.407zm-86.483 68.851c-5.727 9.001-11.454 18.236-16.83 27.704-5.376 9.352-10.401 18.704-15.193 28.055-6.311-15.664-11.687-31.328-16.128-46.524 15.31-3.624 31.438-6.78 48.151-9.235zm-105.768 146.353c-41.372-17.651-68.135-40.797-68.135-59.149 0-18.353 26.763-41.615 68.135-59.149 10.051-4.325 21.037-8.183 32.373-11.806 6.662 22.911 15.427 46.758 26.296 71.189-10.752 24.314-19.4 48.043-25.945 70.838-11.57-3.624-22.556-7.598-32.724-11.923zm62.876 167.043c-15.894-9.118-22.789-43.836-17.413-88.49 1.285-10.988 3.389-22.561 5.96-34.367 22.907 5.611 47.917 9.936 74.212 12.742 15.778 21.625 32.14 41.264 48.618 58.447-38.099 35.419-73.861 54.824-98.17 54.824-5.26-.117-9.701-1.169-13.207-3.156zm277.216-89.074c5.493 44.654-1.286 79.371-17.063 88.606-3.506 2.104-8.064 3.039-13.44 3.039-24.192 0-60.071-19.287-98.171-54.473 16.362-17.183 32.724-36.705 48.267-58.33 26.413-2.806 51.423-7.131 74.329-12.859 2.688 11.807 4.792 23.145 6.078 34.017zm44.995-77.969c-10.051 4.325-21.037 8.182-32.373 11.806-6.662-22.911-15.427-46.758-26.296-71.189 10.752-24.314 19.4-48.044 25.945-70.838 11.57 3.623 22.556 7.598 32.84 11.923 41.373 17.651 68.136 40.796 68.136 59.149-.117 18.352-26.88 41.615-68.252 59.149z"/><path d="m340.793 256.234c0 29.504-23.913 53.421-53.41 53.421s-53.409-23.917-53.409-53.421 23.912-53.421 53.409-53.421 53.41 23.917 53.41 53.421z"/></g></svg>